<svg width="28" height="28" viewBox="0 0 28 28" fill="none" xmlns="http://www.w3.org/2000/svg">
    <rect width="23" height="25" transform="translate(2 2)" fill="white"/>
    <path d="M25 0H3C1.34375 0 0 1.34375 0 3V25C0 26.6562 1.34375 28 3 28H25C26.6562 28 28 26.6562 28 25V3C28 1.34375 26.6562 0 25 0ZM17.3312 23.9813C16.8062 24.075 16.6125 23.75 16.6125 23.4813C16.6125 23.1438 16.625 21.4187 16.625 20.025C16.625 19.05 16.3 18.4313 15.9187 18.1063C18.2313 17.85 20.6688 17.5312 20.6688 13.5375C20.6688 12.4 20.2625 11.8313 19.6 11.1C19.7063 10.8313 20.0625 9.725 19.4937 8.2875C18.625 8.01875 16.6375 9.40625 16.6375 9.40625C15.8125 9.175 14.9188 9.05625 14.0375 9.05625C13.1562 9.05625 12.2625 9.175 11.4375 9.40625C11.4375 9.40625 9.45 8.01875 8.58125 8.2875C8.0125 9.71875 8.3625 10.825 8.475 11.1C7.8125 11.8313 7.5 12.4 7.5 13.5375C7.5 17.5125 9.83125 17.85 12.1438 18.1063C11.8438 18.375 11.575 18.8375 11.4812 19.5C10.8875 19.7687 9.36875 20.2313 8.4625 18.6313C7.89375 17.6438 6.86875 17.5625 6.86875 17.5625C5.85625 17.55 6.8 18.2 6.8 18.2C7.475 18.5125 7.95 19.7125 7.95 19.7125C8.55625 21.5688 11.4563 20.9438 11.4563 20.9438C11.4563 21.8125 11.4688 23.225 11.4688 23.4813C11.4688 23.75 11.2812 24.075 10.75 23.9813C6.625 22.6 3.7375 18.675 3.7375 14.0875C3.7375 8.35 8.125 3.99375 13.8625 3.99375C19.6 3.99375 24.25 8.35 24.25 14.0875C24.2563 18.675 21.4562 22.6063 17.3312 23.9813ZM11.2 20.1625C11.0813 20.1875 10.9688 20.1375 10.9563 20.0562C10.9438 19.9625 11.025 19.8813 11.1438 19.8563C11.2625 19.8438 11.375 19.8938 11.3875 19.975C11.4062 20.0562 11.325 20.1375 11.2 20.1625ZM10.6062 20.1063C10.6062 20.1875 10.5125 20.2563 10.3875 20.2563C10.25 20.2688 10.1562 20.2 10.1562 20.1063C10.1562 20.025 10.25 19.9562 10.375 19.9562C10.4937 19.9437 10.6062 20.0125 10.6062 20.1063ZM9.75 20.0375C9.725 20.1187 9.6 20.1562 9.49375 20.1187C9.375 20.0938 9.29375 20 9.31875 19.9188C9.34375 19.8375 9.46875 19.8 9.575 19.825C9.7 19.8625 9.78125 19.9563 9.75 20.0375ZM8.98125 19.7C8.925 19.7688 8.80625 19.7563 8.7125 19.6625C8.61875 19.5813 8.59375 19.4625 8.65625 19.4062C8.7125 19.3375 8.83125 19.35 8.925 19.4438C9.00625 19.525 9.0375 19.65 8.98125 19.7ZM8.4125 19.1313C8.35625 19.1688 8.25 19.1313 8.18125 19.0375C8.1125 18.9438 8.1125 18.8375 8.18125 18.7938C8.25 18.7375 8.35625 18.7812 8.4125 18.875C8.48125 18.9688 8.48125 19.0813 8.4125 19.1313ZM8.00625 18.525C7.95 18.5812 7.85625 18.55 7.7875 18.4875C7.71875 18.4062 7.70625 18.3125 7.7625 18.2687C7.81875 18.2125 7.9125 18.2437 7.98125 18.3062C8.05 18.3875 8.0625 18.4812 8.00625 18.525ZM7.5875 18.0625C7.5625 18.1187 7.48125 18.1313 7.4125 18.0875C7.33125 18.05 7.29375 17.9812 7.31875 17.925C7.34375 17.8875 7.4125 17.8687 7.49375 17.9C7.575 17.9438 7.6125 18.0125 7.5875 18.0625Z" fill="#003049"/>
</svg>
