<svg width="27" height="28" viewBox="0 0 27 28" fill="none" xmlns="http://www.w3.org/2000/svg">
    <rect width="24" height="24" transform="translate(1 2)" fill="white"/>
    <path d="M25.0001 0H1.99313C0.892875 0 0 0.904167 0 2.01756V25.9797C0 27.0947 0.892875 28 1.99313 28H25.0001C26.1011 28 27 27.0947 27 25.9797V2.01756C27 0.904167 26.1011 0 25.0001 0ZM8.00775 23.8599H4.00125V10.4981H8.00775V23.8599ZM6.0045 8.67106C4.72087 8.67106 3.68325 7.59228 3.68325 6.26228C3.68325 4.93422 4.72087 3.85544 6.0045 3.85544C7.28512 3.85544 8.32537 4.93422 8.32537 6.26228C8.32537 7.59228 7.28512 8.67106 6.0045 8.67106ZM23.0062 23.8599H19.0061V17.3623C19.0061 15.8122 18.9769 13.8192 16.9245 13.8192C14.8403 13.8192 14.5226 15.5073 14.5226 17.2499V23.8603H10.5195V10.4981H14.3614V12.3227H14.4161C14.9509 11.2727 16.2574 10.1648 18.2059 10.1648C22.2581 10.1648 23.0066 12.9313 23.0066 16.5305L23.0062 23.8599Z" fill="#003049"/>
</svg>
