<svg width="125" height="114" viewBox="0 0 125 114" fill="none" xmlns="http://www.w3.org/2000/svg">
    <path d="M0.721406 104.882L57.3883 2.91313C59.367 -0.647362 64.2259 -0.944071 66.6846 2.02301L67.2917 2.91313L123.959 104.882C125.896 108.367 123.718 112.59 119.974 113.218L119.007 113.298H5.67307C1.68561 113.298 -0.947502 109.344 0.321411 105.766L0.721406 104.882ZM62.34 17.3269L15.3021 101.969H109.378L62.34 17.3269ZM62.34 77.9146C66.2388 77.9146 69.3995 81.0752 69.3995 84.9741C69.3995 88.8729 66.2388 92.0336 62.34 92.0336C58.4412 92.0336 55.2805 88.8729 55.2805 84.9741C55.2805 81.0752 58.4412 77.9146 62.34 77.9146ZM62.3357 45.3484C65.1167 45.3505 67.4281 47.3563 67.9058 49.9993L67.9963 51.0177L67.9876 62.3184C67.9852 65.4471 65.447 67.9814 62.3184 67.979C59.5374 67.9769 57.2259 65.9712 56.7483 63.3281L56.6578 62.3098L56.6664 51.009C56.6688 47.8803 59.207 45.346 62.3357 45.3484Z" fill="#C1121F"/>
</svg>
