<?xml version="1.0" standalone="no"?>
<!DOCTYPE svg PUBLIC "-//W3C//DTD SVG 20010904//EN"
 "http://www.w3.org/TR/2001/REC-SVG-20010904/DTD/svg10.dtd">
<svg version="1.0" xmlns="http://www.w3.org/2000/svg"
 width="700.000000pt" height="700.000000pt" viewBox="0 0 700.000000 700.000000"
 preserveAspectRatio="xMidYMid meet">
<metadata>
Created by potrace 1.14, written by Peter Selinger 2001-2017
</metadata>
<g transform="translate(0.000000,700.000000) scale(0.100000,-0.100000)"
fill="#000000" stroke="none">
<path d="M0 3500 l0 -3500 3500 0 3500 0 0 3500 0 3500 -3500 0 -3500 0 0
-3500z m6660 0 l0 -3160 -3160 0 -3160 0 0 3160 0 3160 3160 0 3160 0 0 -3160z"/>
<path d="M1810 3550 l0 -1970 753 0 c416 0 803 5 867 10 335 29 612 112 855
255 473 278 765 768 836 1405 15 135 15 475 0 610 -97 867 -605 1452 -1404
1614 -204 42 -300 46 -1119 46 l-788 0 0 -1970z m1650 1236 c468 -83 720 -347
817 -859 26 -135 26 -609 0 -752 -23 -127 -87 -321 -133 -402 -131 -234 -341
-382 -629 -444 -122 -26 -374 -40 -645 -37 l-225 3 -3 1259 -2 1258 362 -5
c278 -3 385 -8 458 -21z"/>
</g>
</svg>
