<?xml version="1.0" standalone="no"?>
<!DOCTYPE svg PUBLIC "-//W3C//DTD SVG 20010904//EN"
 "http://www.w3.org/TR/2001/REC-SVG-20010904/DTD/svg10.dtd">
<svg version="1.0" xmlns="http://www.w3.org/2000/svg"
 width="1120.000000pt" height="1120.000000pt" viewBox="0 0 1120.000000 1120.000000"
 preserveAspectRatio="xMidYMid meet">
<metadata>
Created by potrace 1.14, written by Peter Selinger 2001-2017
</metadata>
<g transform="translate(0.000000,1120.000000) scale(0.100000,-0.100000)"
fill="#000000" stroke="none">
<path d="M810 5585 l0 -5586 2198 4 c1208 2 2224 6 2257 10 55 6 143 14 255
22 94 8 190 19 261 30 20 3 53 8 75 11 65 8 104 14 184 29 14 3 39 7 55 10 31
5 104 20 141 28 12 3 37 8 56 11 20 3 48 10 63 16 15 6 30 8 32 6 3 -3 17 0
32 6 14 5 38 12 53 14 14 3 73 18 130 35 56 17 110 32 118 34 74 18 422 142
502 179 108 49 150 66 158 66 6 0 10 4 10 8 0 5 6 9 13 9 23 0 323 156 436
227 22 15 45 26 51 26 5 0 10 4 10 9 0 5 10 13 23 17 12 4 24 10 27 13 3 4 23
18 45 31 104 63 393 277 486 360 9 8 45 40 79 70 128 113 324 313 420 429 25
30 52 63 60 72 18 21 50 60 91 114 17 22 36 43 42 47 7 4 8 8 3 8 -4 0 7 19
26 43 18 23 46 62 62 86 16 25 33 50 38 55 5 6 29 43 53 81 24 39 49 75 55 82
5 7 10 15 10 18 0 3 18 35 40 71 22 36 40 69 40 73 0 3 11 23 25 42 13 20 21
39 18 43 -4 3 -1 6 5 6 6 0 14 10 18 23 3 12 16 36 28 52 11 17 19 30 17 30
-2 0 23 54 54 120 32 65 58 125 58 132 0 7 4 13 9 13 4 0 8 5 8 11 0 6 14 43
31 82 17 39 32 75 34 81 1 6 8 25 14 41 31 74 80 215 75 215 -4 0 -2 6 3 12
13 16 106 312 118 376 2 10 4 17 5 17 1 0 3 9 5 20 2 11 5 29 8 40 13 52 28
112 32 131 15 67 47 224 51 253 3 18 8 43 10 55 7 38 23 130 28 166 13 89 19
138 22 170 2 19 6 51 8 70 26 239 32 307 42 550 16 359 7 791 -22 1120 -3 30
-6 79 -7 107 -1 29 -5 53 -8 53 -4 0 -6 6 -6 13 2 11 -14 175 -18 187 -1 3 -5
30 -9 60 -5 30 -10 64 -12 75 -2 10 -6 37 -9 60 -3 22 -10 60 -15 85 -7 38
-19 98 -26 135 -1 6 -3 12 -4 15 -1 3 -3 14 -5 25 -2 11 -11 54 -20 95 -9 41
-17 80 -18 85 -2 6 -6 16 -10 23 -5 6 -6 12 -4 12 5 0 -11 65 -52 210 -12 41
-23 82 -26 90 -5 19 -56 173 -89 265 -24 71 -90 238 -122 310 -10 22 -17 43
-16 48 1 4 -3 7 -10 7 -6 0 -9 3 -6 6 3 3 -34 85 -83 182 -117 233 -113 226
-292 517 -6 11 -24 36 -39 56 -16 20 -28 41 -28 47 0 6 -4 12 -8 14 -5 2 -23
26 -42 53 -18 28 -36 52 -40 55 -3 3 -17 21 -30 40 -23 33 -31 43 -70 90 -8
10 -28 34 -45 55 -131 161 -300 337 -464 485 -46 41 -89 81 -97 88 -7 6 -16
12 -21 12 -4 1 -26 19 -48 40 -22 22 -46 40 -52 40 -7 0 -13 3 -13 8 0 10
-136 112 -150 112 -5 0 -10 5 -10 10 0 6 -7 10 -16 10 -8 0 -12 5 -9 10 3 6 2
10 -3 10 -5 0 -64 36 -130 80 -66 44 -125 80 -131 80 -6 0 -11 3 -11 8 0 4
-17 15 -37 25 -21 10 -65 34 -98 54 -60 35 -369 193 -379 193 -3 0 -33 13 -68
29 -103 47 -147 65 -188 76 -3 1 -23 10 -45 20 -22 9 -45 18 -52 19 -7 1 -16
5 -19 9 -4 4 -18 7 -31 7 -13 0 -23 4 -23 10 0 5 -3 9 -7 8 -5 -1 -60 14 -123
34 -179 57 -332 98 -341 92 -5 -3 -9 -1 -9 4 0 5 -6 9 -12 10 -15 1 -53 9 -78
17 -10 3 -31 8 -46 10 -16 2 -40 7 -54 10 -14 3 -38 8 -55 10 -16 3 -37 8 -46
11 -24 7 -178 35 -224 40 -52 6 -90 12 -90 14 0 3 -63 9 -121 13 -28 2 -55 6
-60 9 -5 3 -19 4 -31 3 -13 -1 -23 1 -23 4 0 3 -19 6 -43 7 -59 1 -236 15
-272 20 -16 3 -39 4 -50 4 -11 -1 -24 0 -30 1 -5 1 -1001 3 -2212 6 l-2203 4
0 -5586z m4230 3552 c82 -7 155 -14 216 -22 21 -2 59 -7 84 -10 25 -3 59 -8
75 -11 17 -3 46 -7 65 -10 19 -2 55 -8 80 -13 25 -5 59 -12 75 -15 17 -2 39
-7 50 -10 96 -25 182 -47 190 -50 6 -1 24 -6 40 -10 67 -17 249 -83 322 -116
24 -11 46 -20 49 -20 20 0 251 -124 336 -181 33 -21 61 -39 64 -39 2 0 12 -6
21 -14 10 -8 48 -38 86 -66 37 -28 88 -70 114 -93 70 -64 163 -155 163 -160 0
-3 17 -22 38 -44 48 -50 149 -181 199 -259 7 -10 24 -36 38 -57 14 -21 25 -40
25 -43 0 -2 12 -23 27 -47 31 -48 107 -202 102 -203 -2 0 1 -7 8 -15 13 -16
87 -192 109 -259 8 -25 19 -54 24 -65 5 -11 19 -54 31 -95 12 -41 28 -94 35
-118 8 -24 12 -47 9 -52 -3 -5 -1 -11 4 -14 7 -5 13 -31 22 -93 1 -5 6 -19 11
-33 6 -14 12 -43 14 -65 2 -22 7 -47 10 -55 3 -8 8 -31 10 -50 6 -43 12 -75
14 -75 2 0 4 -16 6 -35 1 -19 5 -46 8 -59 3 -13 8 -49 12 -80 4 -31 8 -67 10
-81 2 -14 5 -52 9 -85 3 -33 7 -80 10 -105 27 -271 27 -1060 0 -1240 -2 -14
-6 -56 -10 -95 -6 -78 -51 -400 -55 -400 -1 0 -3 -14 -6 -32 -2 -18 -8 -52
-14 -75 -6 -24 -12 -52 -14 -63 -10 -60 -19 -101 -24 -110 -3 -5 -7 -16 -8
-25 -4 -27 -13 -63 -34 -135 -12 -38 -23 -77 -25 -86 -2 -8 -10 -32 -19 -52
-8 -20 -12 -37 -9 -37 3 0 1 -6 -4 -12 -6 -7 -13 -26 -17 -43 -4 -16 -16 -48
-27 -72 -10 -23 -19 -44 -19 -47 0 -3 -14 -36 -31 -73 -159 -352 -313 -578
-557 -820 -68 -68 -127 -123 -131 -123 -4 0 -23 -14 -42 -31 -19 -17 -79 -61
-134 -97 -55 -37 -102 -69 -105 -72 -10 -10 -283 -152 -300 -156 -3 0 -16 -5
-30 -11 -155 -64 -419 -149 -530 -169 -8 -2 -56 -12 -105 -23 -50 -11 -115
-22 -145 -26 -29 -3 -56 -8 -60 -10 -3 -2 -33 -7 -66 -10 -32 -4 -75 -9 -94
-11 -211 -24 -304 -26 -1181 -28 l-887 -2 0 3556 c0 1955 2 3558 4 3562 5 8
1754 3 1864 -5z"/>
</g>
</svg>
